<?xml version="1.0" encoding="UTF-8" standalone="no"?>
<svg
   xmlns:sketch="http://www.bohemiancoding.com/sketch/ns"
   xmlns:dc="http://purl.org/dc/elements/1.1/"
   xmlns:cc="http://creativecommons.org/ns#"
   xmlns:rdf="http://www.w3.org/1999/02/22-rdf-syntax-ns#"
   xmlns:svg="http://www.w3.org/2000/svg"
   xmlns="http://www.w3.org/2000/svg"
   xmlns:xlink="http://www.w3.org/1999/xlink"
   xmlns:sodipodi="http://sodipodi.sourceforge.net/DTD/sodipodi-0.dtd"
   xmlns:inkscape="http://www.inkscape.org/namespaces/inkscape"
   width="348px"
   height="351px"
   viewBox="0 0 348 351"
   version="1.1"
   id="svg5852"
   inkscape:version="0.48.4 r9939"
   sodipodi:docname="hue-bounce.svg">
  <metadata
     id="metadata5993">
    <rdf:RDF>
      <cc:Work
         rdf:about="">
        <dc:format>image/svg+xml</dc:format>
        <dc:type
           rdf:resource="http://purl.org/dc/dcmitype/StillImage" />
        <dc:title>philips-hue-button</dc:title>
      </cc:Work>
    </rdf:RDF>
  </metadata>
  <sodipodi:namedview
     pagecolor="#ffffff"
     bordercolor="#666666"
     borderopacity="1"
     objecttolerance="10"
     gridtolerance="10"
     guidetolerance="10"
     inkscape:pageopacity="0"
     inkscape:pageshadow="2"
     inkscape:window-width="708"
     inkscape:window-height="480"
     id="namedview5991"
     showgrid="false"
     inkscape:zoom="0.67236467"
     inkscape:cx="406.01695"
     inkscape:cy="137.28185"
     inkscape:window-x="982"
     inkscape:window-y="352"
     inkscape:window-maximized="0"
     inkscape:current-layer="svg5852" />
  <!-- Generator: Sketch 3.3.2 (12043) - http://www.bohemiancoding.com/sketch -->
  <title
     id="title5854">philips-hue-button</title>
  <desc
     id="desc5856">Created with Sketch.</desc>
  <defs
     id="defs5858">
    <linearGradient
       x1="173.74838"
       y1="-1.4350287e-029"
       x2="173.74838"
       y2="347.49676"
       id="linearGradient-1"
       gradientTransform="scale(0.99569273,1.0043259)"
       gradientUnits="userSpaceOnUse">
      <stop
         stop-color="#CACECF"
         offset="0%"
         id="stop5861" />
      <stop
         stop-color="#9BA0A3"
         offset="100%"
         id="stop5863" />
    </linearGradient>
    <ellipse
       id="path-2"
       cx="173"
       cy="174.5"
       rx="173"
       ry="174.5" />
    <linearGradient
       x1="50%"
       y1="0%"
       x2="50%"
       y2="100%"
       id="linearGradient-3">
      <stop
         stop-color="#EFF0F2"
         offset="0%"
         id="stop5867" />
      <stop
         stop-color="#D9DDE0"
         offset="100%"
         id="stop5869" />
    </linearGradient>
    <linearGradient
       x1="50%"
       y1="0%"
       x2="50%"
       y2="100%"
       id="linearGradient-4">
      <stop
         stop-color="#2F2F2F"
         offset="0%"
         id="stop5872" />
      <stop
         stop-color="#BCC0C2"
         offset="100%"
         id="stop5874" />
    </linearGradient>
    <circle
       id="path-5"
       cx="173"
       cy="173"
       r="161" />
    <circle
       id="path-6"
       cx="170.5"
       cy="103.5"
       r="2.5" />
    <circle
       id="path-7"
       cx="47.5"
       cy="47.5"
       r="47.5" />
    <circle
       id="path-8"
       cx="2.5"
       cy="12.5"
       r="2.5" />
    <circle
       id="path-9"
       cx="2.5"
       cy="2.5"
       r="2.5" />
    <circle
       id="path-10"
       cx="47.5"
       cy="47.5"
       r="47.5" />
    <circle
       id="path-11"
       cx="2.5"
       cy="12.5"
       r="2.5" />
    <circle
       id="path-12"
       cx="2.5"
       cy="2.5"
       r="2.5" />
    <circle
       id="path-13"
       cx="12.5"
       cy="12.5"
       r="2.5" />
    <circle
       id="path-14"
       cx="12.5"
       cy="2.5"
       r="2.5" />
    <circle
       id="path-15"
       cx="47.5"
       cy="47.5"
       r="47.5" />
    <circle
       id="path-16"
       cx="2.5"
       cy="10.5"
       r="2.5" />
    <circle
       id="path-17"
       cx="9.5"
       cy="6.5"
       r="2.5" />
    <circle
       id="path-18"
       cx="2.5"
       cy="2.5"
       r="2.5" />
    <linearGradient
       inkscape:collect="always"
       xlink:href="#linearGradient-4"
       id="linearGradient5995"
       x1="173"
       y1="11"
       x2="173"
       y2="335"
       gradientUnits="userSpaceOnUse" />
    <linearGradient
       inkscape:collect="always"
       xlink:href="#linearGradient-3"
       id="linearGradient5997"
       x1="173"
       y1="12"
       x2="173"
       y2="334"
       gradientUnits="userSpaceOnUse" />
    <linearGradient
       inkscape:collect="always"
       xlink:href="#linearGradient-4"
       id="linearGradient5999"
       x1="47.5"
       y1="-1"
       x2="47.5"
       y2="96"
       gradientUnits="userSpaceOnUse" />
    <linearGradient
       inkscape:collect="always"
       xlink:href="#linearGradient-3"
       id="linearGradient6001"
       x1="47.5"
       y1="-3.9231366e-030"
       x2="47.5"
       y2="95"
       gradientUnits="userSpaceOnUse" />
    <linearGradient
       inkscape:collect="always"
       xlink:href="#linearGradient-4"
       id="linearGradient6003"
       x1="47.5"
       y1="-1"
       x2="47.5"
       y2="96"
       gradientUnits="userSpaceOnUse" />
    <linearGradient
       inkscape:collect="always"
       xlink:href="#linearGradient-3"
       id="linearGradient6005"
       x1="47.5"
       y1="-3.9231366e-030"
       x2="47.5"
       y2="95"
       gradientUnits="userSpaceOnUse" />
    <linearGradient
       inkscape:collect="always"
       xlink:href="#linearGradient-4"
       id="linearGradient6007"
       x1="47.5"
       y1="-1"
       x2="47.5"
       y2="96"
       gradientUnits="userSpaceOnUse" />
    <linearGradient
       inkscape:collect="always"
       xlink:href="#linearGradient-3"
       id="linearGradient6009"
       x1="47.5"
       y1="-3.9231366e-030"
       x2="47.5"
       y2="95"
       gradientUnits="userSpaceOnUse" />
  </defs>
  <g
     id="Page-1"
     sketch:type="MSPage"
     transform="matrix(0.47344245,0,0,0.47344245,182.97875,181.58384)"
     style="fill:none;stroke:none">
    <g
       id="Button-1"
       sketch:type="MSLayerGroup"
       transform="translate(1,1)">
      <g
         id="Oval-1">
        <use
           sketch:type="MSShapeGroup"
           xlink:href="#path-2"
           id="use5893"
           style="fill:#d8d8d8;stroke:#cccfd0;stroke-width:1"
           x="0"
           y="0"
           width="348"
           height="351" />
        <use
           xlink:href="#path-2"
           id="use5895"
           style="fill:url(#linearGradient-1);stroke:none"
           x="0"
           y="0"
           width="348"
           height="351" />
      </g>
      <g
         id="Oval-1-Copy">
        <use
           sketch:type="MSShapeGroup"
           xlink:href="#path-5"
           id="use5898"
           style="fill:#eeeff1;stroke:url(#linearGradient5995);stroke-width:2"
           x="0"
           y="0"
           width="348"
           height="351" />
        <use
           xlink:href="#path-5"
           id="use5900"
           style="fill:url(#linearGradient5997);stroke:none"
           x="0"
           y="0"
           width="348"
           height="351" />
      </g>
      <g
         id="Oval-1-Copy-8">
        <use
           sketch:type="MSShapeGroup"
           xlink:href="#path-6"
           id="use5903"
           style="fill:#7e8389;fill-rule:evenodd"
           x="0"
           y="0"
           width="348"
           height="351" />
        <use
           xlink:href="#path-6"
           id="use5905"
           style="fill:none"
           x="0"
           y="0"
           width="348"
           height="351" />
      </g>
    </g>
    <g
       id="Button-2"
       sketch:type="MSLayerGroup"
       transform="translate(38,128)">
      <g
         id="Oval-1-Copy-2">
        <use
           sketch:type="MSShapeGroup"
           xlink:href="#path-7"
           id="use5909"
           style="fill:#eeeff1;stroke:url(#linearGradient5999);stroke-width:2"
           x="0"
           y="0"
           width="348"
           height="351" />
        <use
           xlink:href="#path-7"
           id="use5911"
           style="fill:url(#linearGradient6001);stroke:none"
           x="0"
           y="0"
           width="348"
           height="351" />
      </g>
      <g
         id="Dots"
         transform="translate(45,40)">
        <g
           id="Oval-1-Copy-3">
          <use
             sketch:type="MSShapeGroup"
             xlink:href="#path-8"
             id="use5915"
             style="fill:#7e8389;fill-rule:evenodd"
             x="0"
             y="0"
             width="348"
             height="351" />
          <use
             xlink:href="#path-8"
             id="use5917"
             style="fill:none"
             x="0"
             y="0"
             width="348"
             height="351" />
        </g>
        <g
           id="Oval-1-Copy-4">
          <use
             sketch:type="MSShapeGroup"
             xlink:href="#path-9"
             id="use5920"
             style="fill:#7e8389;fill-rule:evenodd"
             x="0"
             y="0"
             width="348"
             height="351" />
          <use
             xlink:href="#path-9"
             id="use5922"
             style="fill:none"
             x="0"
             y="0"
             width="348"
             height="351" />
        </g>
      </g>
    </g>
    <g
       id="Button-4"
       sketch:type="MSLayerGroup"
       transform="translate(216,126)">
      <g
         id="g5925">
        <use
           sketch:type="MSShapeGroup"
           xlink:href="#path-10"
           id="use5927"
           style="fill:#eeeff1;stroke:url(#linearGradient6003);stroke-width:2"
           x="0"
           y="0"
           width="348"
           height="351" />
        <use
           xlink:href="#path-10"
           id="use5929"
           style="fill:url(#linearGradient6005);stroke:none"
           x="0"
           y="0"
           width="348"
           height="351" />
      </g>
      <g
         id="g5931"
         transform="translate(40,40)">
        <g
           id="g5933">
          <use
             sketch:type="MSShapeGroup"
             xlink:href="#path-11"
             id="use5935"
             style="fill:#7e8389;fill-rule:evenodd"
             x="0"
             y="0"
             width="348"
             height="351" />
          <use
             xlink:href="#path-11"
             id="use5937"
             style="fill:none"
             x="0"
             y="0"
             width="348"
             height="351" />
        </g>
        <g
           id="g5939">
          <use
             sketch:type="MSShapeGroup"
             xlink:href="#path-12"
             id="use5941"
             style="fill:#7e8389;fill-rule:evenodd"
             x="0"
             y="0"
             width="348"
             height="351" />
          <use
             xlink:href="#path-12"
             id="use5943"
             style="fill:none"
             x="0"
             y="0"
             width="348"
             height="351" />
        </g>
        <g
           id="Oval-1-Copy-7">
          <use
             sketch:type="MSShapeGroup"
             xlink:href="#path-13"
             id="use5946"
             style="fill:#7e8389;fill-rule:evenodd"
             x="0"
             y="0"
             width="348"
             height="351" />
          <use
             xlink:href="#path-13"
             id="use5948"
             style="fill:none"
             x="0"
             y="0"
             width="348"
             height="351" />
        </g>
        <g
           id="Oval-1-Copy-6">
          <use
             sketch:type="MSShapeGroup"
             xlink:href="#path-14"
             id="use5951"
             style="fill:#7e8389;fill-rule:evenodd"
             x="0"
             y="0"
             width="348"
             height="351" />
          <use
             xlink:href="#path-14"
             id="use5953"
             style="fill:none"
             x="0"
             y="0"
             width="348"
             height="351" />
        </g>
      </g>
    </g>
    <g
       id="Button-3"
       sketch:type="MSLayerGroup"
       transform="translate(128,218)">
      <g
         id="g5956">
        <use
           sketch:type="MSShapeGroup"
           xlink:href="#path-15"
           id="use5958"
           style="fill:#eeeff1;stroke:url(#linearGradient6007);stroke-width:2"
           x="0"
           y="0"
           width="348"
           height="351" />
        <use
           xlink:href="#path-15"
           id="use5960"
           style="fill:url(#linearGradient6009);stroke:none"
           x="0"
           y="0"
           width="348"
           height="351" />
      </g>
      <g
         id="g5962"
         transform="translate(42,41)">
        <g
           id="g5964">
          <use
             sketch:type="MSShapeGroup"
             xlink:href="#path-16"
             id="use5966"
             style="fill:#7e8389;fill-rule:evenodd"
             x="0"
             y="0"
             width="348"
             height="351" />
          <use
             xlink:href="#path-16"
             id="use5968"
             style="fill:none"
             x="0"
             y="0"
             width="348"
             height="351" />
        </g>
        <g
           id="Oval-1-Copy-5">
          <use
             sketch:type="MSShapeGroup"
             xlink:href="#path-17"
             id="use5971"
             style="fill:#7e8389;fill-rule:evenodd"
             x="0"
             y="0"
             width="348"
             height="351" />
          <use
             xlink:href="#path-17"
             id="use5973"
             style="fill:none"
             x="0"
             y="0"
             width="348"
             height="351" />
        </g>
        <g
           id="g5975">
          <use
             sketch:type="MSShapeGroup"
             xlink:href="#path-18"
             id="use5977"
             style="fill:#7e8389;fill-rule:evenodd"
             x="0"
             y="0"
             width="348"
             height="351" />
          <use
             xlink:href="#path-18"
             id="use5979"
             style="fill:none"
             x="0"
             y="0"
             width="348"
             height="351" />
        </g>
      </g>
    </g>
    <g
       id="Philips"
       sketch:type="MSLayerGroup"
       transform="translate(142,36)"
       style="fill:#666666">
      <path
         d="m 41.756757,2.745662 0,-2.53483145 c 3.310811,-0.0539326 3.445946,-0.094382 4.527027,-0.0674157 1.675675,0.0404494 2.689189,0.5258427 3.418919,1.25393255 0.702702,0.7146068 1.256756,1.7932584 1.229729,3.3573034 -0.01351,0.9033708 -0.581081,4.2337078 -4.621621,4.435955 -0.472973,0.040449 -1.567568,0 -2.256757,0.026966 L 44.743243,6.6153249 C 46.351351,6.7501564 47.621622,6.2377968 47.689189,4.7276845 47.756757,3.0288081 46.256757,2.4894822 44.743243,2.745662 l -2.986486,0"
         id="Shape-Copy-9"
         sketch:type="MSShapeGroup"
         inkscape:connector-curvature="0" />
      <path
         d="m 44.743243,11.622472 -2.986486,0 0,-9.4651686 2.986486,0.013483 0,9.4516856"
         id="Shape-Copy"
         sketch:type="MSShapeGroup"
         inkscape:connector-curvature="0" />
      <path
         d="m 55.464814,4.2228062 2.445946,0.8764045 c 1.635135,0.647191 1.972973,1.941573 1.95946,3.0741573 -0.04054,2.602247 -2.121622,3.573034 -3.783784,3.721348 -1.891892,0.161798 -3.351351,-0.161797 -3.837838,-0.229213 l 0,-2.8314608 c 1.5,0.4584269 3.22973,0.4314606 3.824324,0.2022471 0.445947,-0.1752809 0.783784,-0.4314606 0.756757,-0.7820224 -0.01351,-0.1887641 -0.02703,-0.4314607 -0.594594,-0.6606742 L 53.978328,6.7711208 C 52.532382,6.2452781 51.964814,4.8699972 52.032382,3.6565141 c 0.121622,-2.4674158 2.108108,-3.72134835 4.081081,-3.65393262 0.608108,0.02696629 1.432432,0.01348314 2.621622,0.1752809 l 0,2.80449442 C 57.397247,2.6722444 56.762112,2.6722444 56.072922,2.7666264 c -0.77027,0.094382 -1.121621,0.4988764 -1.108108,0.916854 0.02703,0.188764 0.243244,0.4179775 0.5,0.5393258"
         id="Shape-Copy-2"
         sketch:type="MSShapeGroup"
         inkscape:connector-curvature="0" />
      <path
         d="m 13.662162,4.5303371 3.216216,0 0,-4.26067418 2.986487,0 0,11.44719108 -2.986487,0 0,-4.5977529 -3.216216,0 0,4.5977529 -2.986486,0 0,-11.44719108 2.986486,0 0,4.26067418"
         id="Shape-Copy-3"
         sketch:type="MSShapeGroup"
         inkscape:connector-curvature="0" />
      <path
         d="m 22.567568,0.26966292 2.986486,0 0,11.44719108 -2.986486,0 0,-11.44719108 0,0 z"
         id="Shape-Copy-4"
         sketch:type="MSShapeGroup"
         inkscape:connector-curvature="0" />
      <path
         d="m 35.945946,0.26966292 2.986486,0 0,11.44719108 -2.986486,0 0,-11.44719108 0,0 z"
         id="Shape-Copy-5"
         sketch:type="MSShapeGroup"
         inkscape:connector-curvature="0" />
      <path
         d="m 31.364865,9.1146067 3.081081,0 0,2.6022473 -6.067568,0 0,-11.44719108 2.986487,0 0,8.84494378"
         id="Shape-Copy-6"
         sketch:type="MSShapeGroup"
         inkscape:connector-curvature="0" />
      <path
         d="M 0,2.745662 0,0.21083055 c 3.3108108,-0.0539326 3.445946,-0.094382 4.527027,-0.0674157 1.6756757,0.0404494 2.6891892,0.5258427 3.4189189,1.25393255 0.7027028,0.7146068 1.2567568,1.7932584 1.2297298,3.3573034 -0.013514,0.9033708 -0.5810811,4.2337078 -4.6216216,4.435955 -0.472973,0.040449 -1.5270271,0 -2.2297298,0.026966 L 2.972973,6.6153249 C 4.5810811,6.7501564 5.8513513,6.2377968 5.9189189,4.7276845 5.9864865,3.0288081 4.4864865,2.4894822 2.972973,2.745662 L 0,2.745662"
         id="Shape-Copy-7"
         sketch:type="MSShapeGroup"
         inkscape:connector-curvature="0" />
      <path
         d="m 2.9864865,11.703371 -2.9864865,0 0,-9.2764047 2.9864865,0.013483 0,9.2629217"
         id="Shape-Copy-8"
         sketch:type="MSShapeGroup"
         inkscape:connector-curvature="0" />
    </g>
  </g>
  <g
     id="surface1"
     transform="matrix(0.11488452,0,0,0.11488452,-114.12865,73.053491)">
    <path
       d="m 1291.1,16.6 c -38.6,-102.9 -119.8,-210.9 -119.8,-312.5 3.6,-230.3 314.1,-206.9 515.7,-206.9 212.8,0 529.7,-23.4 529.7,206.9 0,106.5 -80,207.2 -119.7,312.4 l -805.9,0.1 z"
       id="path3019"
       inkscape:connector-curvature="0"
       style="fill:#ffee93" />
    <path
       d="m 1486.4,888.8 c 0,301.6 0.6,309.5 0.6,309.5 0,66.5 105.9,98.2 200,98.2 104.1,0 228,-27.4 228,-105.2 V 887.8 l -428.6,1 z"
       id="path3021"
       inkscape:connector-curvature="0"
       style="fill:#afafaf" />
    <path
       d="m 1290.6,16.3 c 803.3,0 806.8,0 806.8,0 -127.5,233.8 -93.5,513.3 -119.3,796.2 -19.9,55 -25.7,60.8 -80.7,80.7 -133.3,-1.2 -266.6,-2.3 -399.9,-3.5 -64.3,-3.5 -69,-10.5 -87.7,-73.7 -22.2,-273.6 10,-576 -119.2,-799.7 z"
       id="path3023"
       inkscape:connector-curvature="0"
       style="fill:#e2e2e2" />
    <path
       d="m 1789.2,664.3 v -18.8 c 24.5,-0.4 25.5,-0.7 33.5,-0.5 12.4,0.3 19.9,3.9 25.3,9.3 5.2,5.3 9.3,13.3 9.1,24.9 -0.1,6.7 -4.3,31.4 -34.2,32.9 -3.5,0.3 -11.6,0 -16.7,0.2 l 5.1,-19.3 c 11.9,1 21.3,-2.8 21.8,-14 0.5,-12.6 -10.6,-16.6 -21.8,-14.7 l -22.1,0"
       id="path3025"
       inkscape:connector-curvature="0"
       style="fill:#666666" />
    <path
       d="m 1811.3,730.5 -22.1,0 v -70.2 l 22.1,0.1 v 70.1"
       id="path3027"
       inkscape:connector-curvature="0"
       style="fill:#666666" />
    <path
       d="m 1890.6,675.5 18.1,6.5 c 12.1,4.8 14.6,14.4 14.5,22.8 -0.3,19.3 -15.7,26.5 -28,27.6 -14,1.2 -24.8,-1.2 -28.4,-1.7 v -21 c 11.1,3.4 23.9,3.2 28.3,1.5 3.3,-1.3 5.8,-3.2 5.6,-5.8 -0.1,-1.4 -0.2,-3.2 -4.4,-4.9 l -16.7,-6.1 c -10.7,-3.9 -14.9,-14.1 -14.4,-23.1 0.9,-18.3 15.6,-27.6 30.2,-27.1 4.5,0.2 10.6,0.1 19.4,1.3 v 20.8 c -9.9,-2.3 -14.6,-2.3 -19.7,-1.6 -5.7,0.7 -8.3,3.7 -8.2,6.8 0.2,1.4 1.8,3.1 3.7,4"
       id="path3029"
       inkscape:connector-curvature="0"
       style="fill:#666666" />
    <path
       d="m 1580.6,677.2 h 23.8 l 0,-31.6 h 22.1 v 84.9 h -22.1 v -34.1 h -23.8 l 0,34.1 h -22.1 v -84.9 h 22.1 l 0,31.6"
       id="path3031"
       inkscape:connector-curvature="0"
       style="fill:#666666" />
    <path
       d="m 1647.3,645.6 h 22.1 v 84.9 h -22.1 v -84.9 z"
       id="path3033"
       inkscape:connector-curvature="0"
       style="fill:#666666" />
    <path
       d="m 1746,645.6 h 22.1 v 84.9 H 1746 v -84.9 z"
       id="path3035"
       inkscape:connector-curvature="0"
       style="fill:#666666" />
    <path
       d="m 1712.3,711.2 h 22.8 v 19.3 l -44.9,0 v -84.9 h 22.1 v 65.6"
       id="path3037"
       inkscape:connector-curvature="0"
       style="fill:#666666" />
    <path
       d="m 1479.8,664.3 v -18.8 c 24.5,-0.4 25.5,-0.7 33.5,-0.5 12.4,0.3 19.9,3.9 25.3,9.3 5.2,5.3 9.3,13.3 9.1,24.9 -0.1,6.7 -4.3,31.4 -34.2,32.9 -3.5,0.3 -11.3,0 -16.5,0.2 l 4.8,-19.3 c 11.9,1 21.3,-2.8 21.8,-14 0.5,-12.6 -10.6,-16.6 -21.8,-14.7 l -22,0"
       id="path3039"
       inkscape:connector-curvature="0"
       style="fill:#666666" />
    <path
       d="m 1501.9,730.5 -22.1,0 v -68.8 l 22.1,0.1 0,68.7"
       id="path3041"
       inkscape:connector-curvature="0"
       style="fill:#666666" />
  </g>
  <rect
     style="fill:#0000ff;fill-opacity:1;stroke:#0000ff;stroke-width:0.34;stroke-miterlimit:4;stroke-opacity:1;stroke-dasharray:0.34, 0.34;stroke-dashoffset:0"
     id="rect6065"
     width="90.724579"
     height="22.309322"
     x="178.47458"
     y="49.080509" />
  <path
     sodipodi:type="star"
     style="fill:#0000ff;fill-opacity:1;stroke:#0000ff;stroke-width:0.34;stroke-miterlimit:4;stroke-opacity:1;stroke-dasharray:0.34, 0.34;stroke-dashoffset:0"
     id="path6835"
     sodipodi:sides="3"
     sodipodi:cx="245.40254"
     sodipodi:cy="8.9237289"
     sodipodi:r1="47.9636"
     sodipodi:r2="23.9818"
     sodipodi:arg1="2.0899424"
     sodipodi:arg2="3.13714"
     inkscape:flatsided="false"
     inkscape:rounded="0"
     inkscape:randomized="0"
     d="M 221.60593,50.567797 221.42098,9.0305112 221.23603,-32.506772 257.30085,-11.898304 293.36567,8.710162 257.4858,29.63898 z"
     inkscape:transform-center-x="-11.898305"
     inkscape:transform-center-y="0.10678248"
     transform="translate(43.131356,50.567796)" />
  <g
     id="g6860"
     transform="matrix(1,0,0,-1,-340.58898,464.0339)">
    <rect
       y="172.41864"
       x="352.30234"
       height="22.309322"
       width="90.724579"
       id="rect6065-5"
       style="fill:#0000ff;fill-opacity:1;stroke:#0000ff;stroke-width:0.34;stroke-miterlimit:4;stroke-opacity:1;stroke-dasharray:0.34, 0.34;stroke-dashoffset:0" />
    <path
       transform="translate(216.95912,173.90593)"
       inkscape:transform-center-y="0.10678248"
       inkscape:transform-center-x="-11.898305"
       d="M 221.60593,50.567797 221.42098,9.0305112 221.23603,-32.506772 257.30085,-11.898304 293.36567,8.710162 257.4858,29.63898 z"
       inkscape:randomized="0"
       inkscape:rounded="0"
       inkscape:flatsided="false"
       sodipodi:arg2="3.13714"
       sodipodi:arg1="2.0899424"
       sodipodi:r2="23.9818"
       sodipodi:r1="47.9636"
       sodipodi:cy="8.9237289"
       sodipodi:cx="245.40254"
       sodipodi:sides="3"
       id="path6835-4"
       style="fill:#0000ff;fill-opacity:1;stroke:#0000ff;stroke-width:0.34;stroke-miterlimit:4;stroke-opacity:1;stroke-dasharray:0.34, 0.34;stroke-dashoffset:0"
       sodipodi:type="star" />
  </g>
</svg>
