<?xml version="1.0" encoding="UTF-8" standalone="no"?>
<!-- Generator: Adobe Illustrator 18.1.1, SVG Export Plug-In . SVG Version: 6.00 Build 0)  -->

<svg
   xmlns:dc="http://purl.org/dc/elements/1.1/"
   xmlns:cc="http://creativecommons.org/ns#"
   xmlns:rdf="http://www.w3.org/1999/02/22-rdf-syntax-ns#"
   xmlns:svg="http://www.w3.org/2000/svg"
   xmlns="http://www.w3.org/2000/svg"
   xmlns:sodipodi="http://sodipodi.sourceforge.net/DTD/sodipodi-0.dtd"
   xmlns:inkscape="http://www.inkscape.org/namespaces/inkscape"
   version="1.1"
   id="Layer_1"
   x="0px"
   y="0px"
   viewBox="694 -604 2000 2000"
   enable-background="new 694 -604 2000 2000"
   xml:space="preserve"
   inkscape:version="0.48.4 r9939"
   width="100%"
   height="100%"
   sodipodi:docname="ledbutton.svg"><metadata
   id="metadata3019"><rdf:RDF><cc:Work
       rdf:about=""><dc:format>image/svg+xml</dc:format><dc:type
         rdf:resource="http://purl.org/dc/dcmitype/StillImage" /></cc:Work></rdf:RDF></metadata><defs
   id="defs3017"><inkscape:perspective
     sodipodi:type="inkscape:persp3d"
     inkscape:vp_x="0 : 1000 : 1"
     inkscape:vp_y="0 : 1000 : 0"
     inkscape:vp_z="2000 : 1000 : 1"
     inkscape:persp3d-origin="1000 : 666.66667 : 1"
     id="perspective3023" /></defs><sodipodi:namedview
   pagecolor="#ffffff"
   bordercolor="#666666"
   borderopacity="1"
   objecttolerance="10"
   gridtolerance="10"
   guidetolerance="10"
   inkscape:pageopacity="0"
   inkscape:pageshadow="2"
   inkscape:window-width="1415"
   inkscape:window-height="930"
   id="namedview3015"
   showgrid="false"
   inkscape:snap-global="true"
   inkscape:object-nodes="true"
   inkscape:zoom="0.378"
   inkscape:cx="1000"
   inkscape:cy="894.17989"
   inkscape:window-x="0"
   inkscape:window-y="0"
   inkscape:window-maximized="0"
   inkscape:current-layer="Layer_1" />

<path
   sodipodi:type="arc"
   style="fill:none;fill-opacity:1;stroke:#333333;stroke-width:15.26962160000000100;stroke-miterlimit:4;stroke-opacity:1;stroke-dasharray:none;stroke-dashoffset:0"
   id="path3021-1"
   sodipodi:cx="899.47089"
   sodipodi:cy="674.60315"
   sodipodi:rx="510.582"
   sodipodi:ry="280.42328"
   d="m 1410.0529,674.60315 a 510.582,280.42328 0 1 1 -1021.16401,-10e-6"
   transform="matrix(1.5413476,0,0,1.1130197,302.3117,47.269807)"
   sodipodi:start="0"
   sodipodi:end="3.1415927"
   sodipodi:open="true" /><path
   sodipodi:type="arc"
   style="fill:none;fill-opacity:1;stroke:#333333;stroke-width:15.26962160000000100;stroke-miterlimit:4;stroke-opacity:1;stroke-dasharray:none;stroke-dashoffset:0"
   id="path3021-1-7"
   sodipodi:cx="899.47089"
   sodipodi:cy="674.60315"
   sodipodi:rx="510.582"
   sodipodi:ry="280.42328"
   d="m 1410.0529,674.60315 a 510.582,280.42328 0 1 1 -1021.16401,0 510.582,280.42328 0 1 1 1021.16401,0 z"
   transform="matrix(1.5413476,0,0,1.1130197,302.31155,-645.85188)" /><path
   style="fill:none;stroke:#333333;stroke-width:20;stroke-linecap:butt;stroke-linejoin:miter;stroke-opacity:1;stroke-miterlimit:4;stroke-dasharray:none"
   d="m 207.7245,708.99471 1.5e-4,693.12169"
   id="path3849"
   inkscape:connector-curvature="0"
   transform="translate(694,-604)" /><path
   style="fill:none;stroke:#333333;stroke-width:20;stroke-linecap:butt;stroke-linejoin:miter;stroke-opacity:1;stroke-miterlimit:4;stroke-dasharray:none"
   d="m 1781.6932,708.99471 10e-5,693.12169"
   id="path3851"
   inkscape:connector-curvature="0"
   transform="translate(694,-604)" /><path
   style="fill:#4d4d4d;stroke:none;fill-opacity:1"
   d="M 882.53968,1006.5767 C 745.76354,997.51077 625.97283,977.60997 526.30484,947.39558 407.63354,911.42032 326.07695,868.75788 271.20288,813.95116 c -20.84139,-20.81579 -27.32566,-29.33201 -36.40546,-47.81359 -22.76182,-46.33088 -20.43468,-83.51643 8.0593,-128.78031 13.7186,-21.79256 53.07206,-58.80775 84.10525,-79.10796 143.50682,-93.8743 392.16068,-149.317 669.28917,-149.23236 235.91736,0.0721 448.94966,39.96926 599.25146,112.22931 53.9068,25.91656 89.1982,49.6956 121.9458,82.16621 22.4187,22.22912 28.4729,30.09279 37.7,48.96849 39.4176,80.63561 -3.5472,158.47254 -125.2542,226.91601 -146.4272,82.34518 -386.867,130.99674 -641.53441,129.81054 -40.01323,-0.1863 -87.63228,-1.3253 -105.82011,-2.5308 l 0,0 z"
   id="path3861"
   inkscape:connector-curvature="0"
   transform="translate(694,-604)" /><path
   style="fill:#4d4d4d;fill-opacity:1;stroke:none"
   d="m 882.53968,1699.6984 c -136.77614,-9.0659 -256.56685,-28.9667 -356.23484,-59.1811 -118.6713,-35.9753 -200.22789,-78.6377 -255.10196,-133.4444 -20.85849,-20.8329 -27.31585,-29.3169 -36.39214,-47.8136 -6.06879,-12.3678 -12.21723,-28.8993 -13.6632,-36.7368 -3.90202,-21.1499 -3.42911,-638.26614 0.48375,-631.25266 13.45749,24.1215 52.1845,60.96722 92.12532,87.65006 153.47824,102.53255 447.86522,162.1724 748.23349,151.5846 341.347,-12.0323 614.2409,-104.11273 705.0869,-237.91191 4.2335,-6.23521 4.4471,11.63206 3.7309,312.16931 l -0.7596,318.7831 -6.263,16.8202 c -56.403,151.4778 -388.611,263.6656 -775.42551,261.864 -40.01323,-0.1863 -87.63228,-1.3253 -105.82011,-2.5308 z"
   id="path3863"
   inkscape:connector-curvature="0"
   transform="translate(694,-604)" /><path
   sodipodi:type="arc"
   style="fill:#4d4d4d;fill-opacity:1;stroke:#333333;stroke-width:7.19362736;stroke-miterlimit:4;stroke-opacity:1;stroke-dasharray:none"
   id="path3865"
   sodipodi:cx="523.80951"
   sodipodi:cy="636.24341"
   sodipodi:rx="407.40741"
   sodipodi:ry="263.22751"
   d="m 931.21692,636.24341 a 407.40741,263.22751 0 1 1 -814.81482,0 407.40741,263.22751 0 1 1 814.81482,0 z"
   transform="matrix(1.5830767,0,0,0.78123581,863.76528,-398.65835)" /><path
   sodipodi:type="arc"
   style="fill:#ff0000;fill-opacity:1;stroke:none"
   id="path3867"
   sodipodi:cx="226.19048"
   sodipodi:cy="310.84656"
   sodipodi:rx="38.359787"
   sodipodi:ry="22.486773"
   d="m 264.55026,310.84656 a 38.359787,22.486773 0 1 1 -76.71957,0 38.359787,22.486773 0 1 1 76.71957,0 z"
   transform="translate(1453.2593,-368.55026)" /><path
   sodipodi:type="arc"
   style="fill:#ff0000;fill-opacity:1;stroke:none"
   id="path3867-4"
   sodipodi:cx="226.19048"
   sodipodi:cy="310.84656"
   sodipodi:rx="38.359787"
   sodipodi:ry="22.486773"
   d="m 264.55026,310.84656 a 38.359787,22.486773 0 1 1 -76.71957,0 38.359787,22.486773 0 1 1 76.71957,0 z"
   transform="translate(1779.9789,-330.19047)" /><path
   sodipodi:type="arc"
   style="fill:#ff0000;fill-opacity:1;stroke:none"
   id="path3867-0"
   sodipodi:cx="226.19048"
   sodipodi:cy="310.84656"
   sodipodi:rx="38.359787"
   sodipodi:ry="22.486773"
   d="m 264.55026,310.84656 a 38.359787,22.486773 0 1 1 -76.71957,0 38.359787,22.486773 0 1 1 76.71957,0 z"
   transform="translate(2002.2011,-216.43386)" /><path
   sodipodi:type="arc"
   style="fill:#ff0000;fill-opacity:1;stroke:none"
   id="path3867-9"
   sodipodi:cx="226.19048"
   sodipodi:cy="310.84656"
   sodipodi:rx="38.359787"
   sodipodi:ry="22.486773"
   d="m 264.55026,310.84656 a 38.359787,22.486773 0 1 1 -76.71957,0 38.359787,22.486773 0 1 1 76.71957,0 z"
   transform="translate(1748.2329,-97.386242)" /><path
   sodipodi:type="arc"
   style="fill:#00ff00;fill-opacity:1;stroke:none"
   id="path3867-48"
   sodipodi:cx="226.19048"
   sodipodi:cy="310.84656"
   sodipodi:rx="38.359787"
   sodipodi:ry="22.486773"
   d="m 264.55026,310.84656 a 38.359787,22.486773 0 1 1 -76.71957,0 38.359787,22.486773 0 1 1 76.71957,0 z"
   transform="translate(1457.2276,-62.994706)" /><path
   sodipodi:type="arc"
   style="fill:#00ff00;fill-opacity:1;stroke:none"
   id="path3867-48-8"
   sodipodi:cx="226.19048"
   sodipodi:cy="310.84656"
   sodipodi:rx="38.359787"
   sodipodi:ry="22.486773"
   d="m 264.55026,310.84656 a 38.359787,22.486773 0 1 1 -76.71957,0 38.359787,22.486773 0 1 1 76.71957,0 z"
   transform="translate(1163.5767,-105.32275)" /><path
   sodipodi:type="arc"
   style="fill:#00ff00;fill-opacity:1;stroke:none"
   id="path3867-48-2"
   sodipodi:cx="226.19048"
   sodipodi:cy="310.84656"
   sodipodi:rx="38.359787"
   sodipodi:ry="22.486773"
   d="m 264.55026,310.84656 a 38.359787,22.486773 0 1 1 -76.71957,0 38.359787,22.486773 0 1 1 76.71957,0 z"
   transform="translate(946.64553,-216.43386)" /><path
   sodipodi:type="arc"
   style="fill:#00ff00;fill-opacity:1;stroke:none"
   id="path3867-48-4"
   sodipodi:cx="226.19048"
   sodipodi:cy="310.84656"
   sodipodi:rx="38.359787"
   sodipodi:ry="22.486773"
   d="m 264.55026,310.84656 a 38.359787,22.486773 0 1 1 -76.71957,0 38.359787,22.486773 0 1 1 76.71957,0 z"
   transform="translate(1158.2857,-316.96296)" /></svg>